SplineFontDB: 3.2
FontName: QuadrillionMonoline-Regular
FullName: Quadrillion Monoline
FamilyName: Quadrillion Monoline
Weight: Regular
Copyright: Copyright (c) 2024, neilb
UComments: "2024-10-26: Created with FontForge (http://fontforge.org)"
Version: 1.000
ItalicAngle: 0
UnderlinePosition: -100
UnderlineWidth: 50
Ascent: 800
Descent: 200
InvalidEm: 0
LayerCount: 2
Layer: 0 0 "Back" 1
Layer: 1 0 "Fore" 0
XUID: [1021 441 2049316168 14921]
StyleMap: 0x0000
FSType: 0
OS2Version: 0
OS2_WeightWidthSlopeOnly: 0
OS2_UseTypoMetrics: 1
CreationTime: 1729927510
ModificationTime: 1729941297
OS2TypoAscent: 0
OS2TypoAOffset: 1
OS2TypoDescent: 0
OS2TypoDOffset: 1
OS2TypoLinegap: 90
OS2WinAscent: 0
OS2WinAOffset: 1
OS2WinDescent: 0
OS2WinDOffset: 1
HheadAscent: 0
HheadAOffset: 1
HheadDescent: 0
HheadDOffset: 1
MarkAttachClasses: 1
DEI: 91125
Encoding: UnicodeFull
UnicodeInterp: none
NameList: AGL For New Fonts
DisplaySize: -48
AntiAlias: 1
FitToEm: 0
WinInfo: 16 16 8
BeginPrivate: 0
EndPrivate
BeginChars: 1114112 27

StartChar: A
Encoding: 65 65 0
Width: 700
Flags: MW
LayerCount: 2
Fore
SplineSet
100 0 m 0
 70 0 50 24 50 50 c 0
 50 57 52 63 54 69 c 2
 304 669 l 2
 312 687 329 700 350 700 c 0
 371 700 388 687 396 669 c 2
 646 69 l 2
 648 63 650 57 650 50 c 0
 650 24 630 0 600 0 c 0
 579 0 562 13 554 31 c 2
 504 150 l 1
 196 150 l 1
 146 31 l 2
 138 13 121 0 100 0 c 0
350 520 m 1
 238 250 l 1
 462 250 l 1
 350 520 l 1
EndSplineSet
EndChar

StartChar: B
Encoding: 66 66 1
Width: 600
Flags: MW
LayerCount: 2
Fore
SplineSet
550 200 m 0
 550 88 467 0 350 0 c 2
 100 0 l 2
 72 0 50 22 50 50 c 0
 50 250 50 450 50 650 c 0
 50 678 72 700 100 700 c 2
 350 700 l 2
 467 700 550 612 550 500 c 0
 550 445 526 386 486 350 c 1
 526 314 550 255 550 200 c 0
450 500 m 0
 450 559 414 600 350 600 c 2
 150 600 l 1
 150 400 l 1
 350 400 l 2
 414 400 450 441 450 500 c 0
450 200 m 0
 450 259 414 300 350 300 c 2
 150 300 l 1
 150 100 l 1
 350 100 l 2
 414 100 450 141 450 200 c 0
EndSplineSet
EndChar

StartChar: C
Encoding: 67 67 2
Width: 575
Flags: MW
LayerCount: 2
Fore
SplineSet
475 200 m 0
 504 200 525 177 525 150 c 0
 525 141 523 132 518 124 c 0
 472 48 392 0 300 0 c 0
 148 0 50 125 50 250 c 2
 50 450 l 2
 50 575 148 700 300 700 c 0
 392 700 472 652 518 576 c 0
 523 568 525 559 525 550 c 0
 525 524 504 500 475 500 c 0
 457 500 441 509 432 524 c 0
 403 573 358 600 300 600 c 0
 202 600 150 525 150 450 c 2
 150 250 l 2
 150 175 202 100 300 100 c 0
 358 100 403 127 432 176 c 0
 441 191 457 200 475 200 c 0
EndSplineSet
EndChar

StartChar: D
Encoding: 68 68 3
Width: 600
Flags: MW
LayerCount: 2
Fore
SplineSet
100 700 m 2
 300 700 l 2
 452 700 550 575 550 450 c 2
 550 250 l 2
 550 125 452 0 300 0 c 2
 100 0 l 2
 72 0 50 22 50 50 c 2
 50 650 l 2
 50 678 72 700 100 700 c 2
150 600 m 1
 150 100 l 1
 300 100 l 2
 398 100 450 175 450 250 c 2
 450 450 l 2
 450 525 398 600 300 600 c 2
 150 600 l 1
EndSplineSet
EndChar

StartChar: E
Encoding: 69 69 4
Width: 600
Flags: MW
LayerCount: 2
Fore
SplineSet
100 700 m 2
 500 700 l 2
 528 700 550 678 550 650 c 0
 550 622 528 600 500 600 c 2
 150 600 l 1
 150 400 l 1
 400 400 l 2
 428 400 450 378 450 350 c 0
 450 322 428 300 400 300 c 2
 150 300 l 1
 150 100 l 1
 500 100 l 2
 528 100 550 78 550 50 c 0
 550 22 528 0 500 0 c 2
 100 0 l 2
 72 0 50 22 50 50 c 0
 50 250 50 450 50 650 c 0
 50 678 72 700 100 700 c 2
EndSplineSet
EndChar

StartChar: F
Encoding: 70 70 5
Width: 600
Flags: MW
LayerCount: 2
Fore
SplineSet
100 700 m 2
 500 700 l 2
 528 700 550 678 550 650 c 0
 550 622 528 600 500 600 c 2
 150 600 l 1
 150 400 l 1
 400 400 l 2
 428 400 450 378 450 350 c 0
 450 322 428 300 400 300 c 2
 150 300 l 1
 150 50 l 2
 150 22 128 0 100 0 c 0
 72 0 50 22 50 50 c 0
 50 250 50 450 50 650 c 0
 50 678 72 700 100 700 c 2
EndSplineSet
EndChar

StartChar: G
Encoding: 71 71 6
Width: 600
Flags: MW
LayerCount: 2
Fore
SplineSet
525 550 m 0
 525 524 504 500 475 500 c 0
 457 500 441 509 432 524 c 0
 403 573 358 600 300 600 c 0
 202 600 150 525 150 450 c 2
 150 250 l 2
 150 175 202 100 300 100 c 0
 398 100 450 175 450 250 c 2
 450 300 l 1
 350 300 l 2
 322 300 300 322 300 350 c 0
 300 378 322 400 350 400 c 2
 500 400 l 2
 528 400 550 378 550 350 c 2
 550 250 l 2
 550 125 452 0 300 0 c 0
 148 0 50 125 50 250 c 2
 50 450 l 2
 50 575 148 700 300 700 c 0
 392 700 472 652 518 576 c 0
 523 568 525 559 525 550 c 0
EndSplineSet
EndChar

StartChar: H
Encoding: 72 72 7
Width: 600
Flags: MW
LayerCount: 2
Fore
SplineSet
100 700 m 0
 128 700 150 678 150 650 c 2
 150 400 l 1
 450 400 l 1
 450 650 l 2
 450 678 472 700 500 700 c 0
 528 700 550 678 550 650 c 0
 550 450 550 250 550 50 c 0
 550 22 528 0 500 0 c 0
 472 0 450 22 450 50 c 2
 450 300 l 1
 150 300 l 1
 150 50 l 2
 150 22 128 0 100 0 c 0
 72 0 50 22 50 50 c 2
 50 650 l 2
 50 678 72 700 100 700 c 0
EndSplineSet
EndChar

StartChar: I
Encoding: 73 73 8
Width: 200
Flags: MW
LayerCount: 2
Fore
SplineSet
100 700 m 0
 128 700 150 678 150 650 c 2
 150 50 l 2
 150 22 128 0 100 0 c 0
 72 0 50 22 50 50 c 2
 50 650 l 2
 50 678 72 700 100 700 c 0
EndSplineSet
EndChar

StartChar: J
Encoding: 74 74 9
Width: 500
Flags: MW
LayerCount: 2
Fore
SplineSet
50 75 m 0
 50 104 74 125 100 125 c 0
 109 125 117 123 124 119 c 0
 144 108 172 100 200 100 c 0
 298 100 350 175 350 250 c 2
 350 650 l 2
 350 678 372 700 400 700 c 0
 428 700 450 678 450 650 c 2
 450 250 l 2
 450 125 352 0 200 0 c 0
 154 0 111 12 76 31 c 0
 60 39 50 56 50 75 c 0
EndSplineSet
EndChar

StartChar: K
Encoding: 75 75 10
Width: 600
Flags: MW
LayerCount: 2
Fore
SplineSet
550 50 m 0
 550 23 528 0 500 0 c 0
 484 0 469 8 460 20 c 2
 242 303 l 1
 150 205 l 1
 150 50 l 2
 150 22 128 0 100 0 c 0
 72 0 50 22 50 50 c 2
 50 650 l 2
 50 678 72 700 100 700 c 0
 128 700 150 678 150 650 c 2
 150 351 l 1
 464 684 l 2
 473 694 485 700 500 700 c 0
 528 700 550 677 550 650 c 0
 550 637 544 625 536 616 c 2
 312 377 l 1
 540 80 l 2
 546 72 550 61 550 50 c 0
EndSplineSet
EndChar

StartChar: L
Encoding: 76 76 11
Width: 500
Flags: MW
LayerCount: 2
Fore
SplineSet
100 700 m 0
 128 700 150 678 150 650 c 2
 150 100 l 1
 400 100 l 2
 428 100 450 78 450 50 c 0
 450 22 428 0 400 0 c 2
 100 0 l 2
 72 0 50 22 50 50 c 2
 50 650 l 2
 50 678 72 700 100 700 c 0
EndSplineSet
EndChar

StartChar: M
Encoding: 77 77 12
Width: 700
Flags: MW
LayerCount: 2
Fore
SplineSet
50 650 m 2
 50 677 72 700 100 700 c 0
 120 700 137 688 145 672 c 2
 350 262 l 1
 555 672 l 2
 563 688 580 700 600 700 c 0
 628 700 650 678 650 650 c 2
 650 50 l 2
 650 22 628 0 600 0 c 0
 572 0 550 22 550 50 c 2
 550 438 l 1
 395 128 l 2
 387 112 370 100 350 100 c 0
 330 100 313 112 305 128 c 2
 150 438 l 1
 150 50 l 2
 150 22 128 0 100 0 c 0
 72 0 50 22 50 50 c 2
 50 650 l 2
EndSplineSet
EndChar

StartChar: N
Encoding: 78 78 13
Width: 600
Flags: MW
LayerCount: 2
Fore
SplineSet
500 700 m 0
 528 700 550 678 550 650 c 2
 550 50 l 2
 550 22 528 0 500 0 c 0
 483 0 467 9 458 22 c 2
 150 485 l 1
 150 50 l 2
 150 22 128 0 100 0 c 0
 72 0 50 22 50 50 c 2
 50 650 l 2
 50 678 72 700 100 700 c 0
 117 700 133 691 142 678 c 2
 450 215 l 1
 450 650 l 2
 450 678 472 700 500 700 c 0
EndSplineSet
EndChar

StartChar: O
Encoding: 79 79 14
Width: 600
Flags: MW
LayerCount: 2
Fore
SplineSet
300 700 m 0
 452 700 550 575 550 450 c 2
 550 250 l 2
 550 125 452 0 300 0 c 0
 148 0 50 125 50 250 c 2
 50 450 l 2
 50 575 148 700 300 700 c 0
300 600 m 0
 202 600 150 525 150 450 c 2
 150 250 l 2
 150 175 202 100 300 100 c 0
 398 100 450 175 450 250 c 2
 450 450 l 2
 450 525 398 600 300 600 c 0
EndSplineSet
EndChar

StartChar: P
Encoding: 80 80 15
Width: 600
Flags: MW
LayerCount: 2
Fore
SplineSet
550 500 m 0
 550 388 467 300 350 300 c 2
 150 300 l 1
 150 50 l 2
 150 22 128 0 100 0 c 0
 72 0 50 22 50 50 c 0
 50 250 50 450 50 650 c 0
 50 678 72 700 100 700 c 2
 350 700 l 2
 467 700 550 612 550 500 c 0
450 500 m 0
 450 559 414 600 350 600 c 2
 150 600 l 1
 150 400 l 1
 350 400 l 2
 414 400 450 441 450 500 c 0
EndSplineSet
EndChar

StartChar: Q
Encoding: 81 81 16
Width: 650
Flags: MW
LayerCount: 2
Fore
SplineSet
600 50 m 0
 600 22 577 0 550 0 c 0
 538 0 527 4 519 11 c 2
 460 57 l 1
 418 22 364 0 300 0 c 0
 148 0 50 125 50 250 c 2
 50 450 l 2
 50 575 148 700 300 700 c 0
 452 700 550 575 550 450 c 2
 550 250 l 2
 550 210 540 171 522 135 c 1
 581 89 l 2
 593 80 600 66 600 50 c 0
275 225 m 0
 275 253 297 275 325 275 c 0
 337 275 348 271 356 264 c 2
 441 198 l 1
 447 215 450 232 450 250 c 2
 450 450 l 2
 450 525 398 600 300 600 c 0
 202 600 150 525 150 450 c 2
 150 250 l 2
 150 175 202 100 300 100 c 0
 331 100 357 108 379 120 c 1
 294 186 l 2
 282 195 275 209 275 225 c 0
EndSplineSet
EndChar

StartChar: R
Encoding: 82 82 17
Width: 600
Flags: MW
LayerCount: 2
Fore
SplineSet
550 50 m 0
 550 23 529 0 500 0 c 0
 483 0 467 9 458 22 c 2
 273 300 l 1
 150 300 l 1
 150 50 l 2
 150 22 128 0 100 0 c 0
 72 0 50 22 50 50 c 0
 50 250 50 450 50 650 c 0
 50 678 72 700 100 700 c 2
 350 700 l 2
 467 700 550 612 550 500 c 0
 550 451 534 402 500 364 c 0
 474 334 436 312 391 304 c 1
 542 78 l 2
 547 70 550 60 550 50 c 0
450 500 m 0
 450 559 414 600 350 600 c 2
 150 600 l 1
 150 400 l 1
 350 400 l 2
 414 400 450 441 450 500 c 0
EndSplineSet
EndChar

StartChar: S
Encoding: 83 83 18
Width: 600
Flags: MW
LayerCount: 2
Fore
SplineSet
50 150 m 0
 50 177 71 200 100 200 c 0
 117 200 133 191 142 178 c 0
 182 118 236 100 300 100 c 0
 354 100 393 114 416 132 c 0
 439 150 450 171 450 200 c 0
 450 236 431 300 300 300 c 0
 131 300 50 411 50 500 c 0
 50 558 78 612 123 647 c 0
 168 682 229 700 300 700 c 0
 386 700 482 668 542 578 c 0
 547 570 550 560 550 550 c 0
 550 523 529 500 500 500 c 0
 483 500 467 509 458 522 c 0
 418 582 364 600 300 600 c 0
 246 600 207 586 184 568 c 0
 161 550 150 529 150 500 c 0
 150 464 169 400 300 400 c 0
 469 400 550 289 550 200 c 0
 550 142 522 88 477 53 c 0
 432 18 371 0 300 0 c 0
 214 0 118 32 58 122 c 0
 53 130 50 140 50 150 c 0
EndSplineSet
EndChar

StartChar: T
Encoding: 84 84 19
Width: 600
Flags: MW
LayerCount: 2
Fore
SplineSet
100 700 m 0
 233 700 367 700 500 700 c 0
 528 700 550 678 550 650 c 0
 550 622 528 600 500 600 c 2
 350 600 l 1
 350 50 l 2
 350 22 328 0 300 0 c 0
 272 0 250 22 250 50 c 2
 250 600 l 1
 100 600 l 2
 72 600 50 622 50 650 c 0
 50 678 72 700 100 700 c 0
EndSplineSet
EndChar

StartChar: U
Encoding: 85 85 20
Width: 600
Flags: MW
LayerCount: 2
Fore
SplineSet
100 700 m 0
 128 700 150 678 150 650 c 2
 150 250 l 2
 150 175 202 100 300 100 c 0
 398 100 450 175 450 250 c 2
 450 650 l 2
 450 678 472 700 500 700 c 0
 528 700 550 678 550 650 c 2
 550 250 l 2
 550 125 452 0 300 0 c 0
 148 0 50 125 50 250 c 2
 50 650 l 2
 50 678 72 700 100 700 c 0
EndSplineSet
EndChar

StartChar: V
Encoding: 86 86 21
Width: 600
Flags: MW
LayerCount: 2
Fore
SplineSet
500 700 m 0
 530 700 550 676 550 650 c 0
 550 644 549 639 547 634 c 2
 347 34 l 2
 340 14 322 0 300 0 c 0
 278 0 260 14 253 34 c 2
 53 634 l 2
 51 639 50 644 50 650 c 0
 50 676 70 700 100 700 c 0
 123 700 140 686 147 666 c 2
 300 208 l 1
 453 666 l 2
 460 686 478 700 500 700 c 0
EndSplineSet
EndChar

StartChar: W
Encoding: 87 87 22
Width: 900
Flags: MW
LayerCount: 2
Fore
SplineSet
50 650 m 0
 50 676 70 700 100 700 c 0
 124 700 142 684 148 664 c 2
 275 229 l 1
 402 664 l 2
 408 685 427 700 450 700 c 0
 473 700 492 685 498 664 c 2
 625 229 l 1
 752 664 l 2
 758 685 777 700 800 700 c 0
 830 700 850 676 850 650 c 0
 850 645 849 640 848 636 c 2
 673 36 l 2
 667 15 648 0 625 0 c 0
 602 0 583 15 577 36 c 2
 450 471 l 1
 323 36 l 2
 317 15 298 0 275 0 c 0
 252 0 233 15 227 36 c 2
 52 636 l 2
 51 640 50 645 50 650 c 0
EndSplineSet
EndChar

StartChar: X
Encoding: 88 88 23
Width: 600
Flags: MW
LayerCount: 2
Fore
SplineSet
50 650 m 0
 50 677 71 700 100 700 c 0
 119 700 133 691 142 678 c 2
 300 440 l 1
 458 678 l 2
 467 691 483 700 500 700 c 0
 529 700 550 677 550 650 c 0
 550 640 547 630 542 622 c 2
 360 350 l 1
 542 78 l 2
 547 70 550 60 550 50 c 0
 550 23 529 0 500 0 c 0
 483 0 467 9 458 22 c 2
 300 260 l 1
 142 22 l 2
 133 9 117 0 100 0 c 0
 71 0 50 23 50 50 c 0
 50 60 53 70 58 78 c 2
 240 350 l 1
 58 622 l 2
 53 630 50 640 50 650 c 0
EndSplineSet
EndChar

StartChar: Y
Encoding: 89 89 24
Width: 600
Flags: MW
LayerCount: 2
Fore
SplineSet
50 650 m 0
 50 676 71 700 100 700 c 0
 119 700 134 690 143 675 c 2
 300 401 l 1
 457 675 l 2
 465 690 480 700 500 700 c 0
 529 700 550 676 550 650 c 0
 550 641 547 632 543 625 c 2
 350 287 l 1
 350 50 l 2
 350 22 328 0 300 0 c 0
 272 0 250 22 250 50 c 2
 250 287 l 1
 57 625 l 2
 53 632 50 641 50 650 c 0
EndSplineSet
EndChar

StartChar: Z
Encoding: 90 90 25
Width: 600
Flags: MW
LayerCount: 2
Fore
SplineSet
100 700 m 2
 500 700 l 2
 528 700 550 678 550 650 c 0
 550 640 547 630 542 622 c 2
 193 100 l 1
 500 100 l 2
 528 100 550 78 550 50 c 0
 550 22 528 0 500 0 c 2
 100 0 l 2
 72 0 50 22 50 50 c 0
 50 60 53 70 58 78 c 2
 407 600 l 1
 100 600 l 2
 72 600 50 622 50 650 c 0
 50 678 72 700 100 700 c 2
EndSplineSet
EndChar

